<svg width="1600" height="1100" viewBox="0 0 1600 1100" fill="none" xmlns="http://www.w3.org/2000/svg">
  <rect width="1600" height="1100" fill="#08111D"/>
  <g opacity="0.95">
    <rect width="1600" height="1100" fill="url(#paint0_linear)"/>
    <circle cx="1318" cy="236" r="268" fill="url(#paint1_radial)"/>
    <circle cx="298" cy="880" r="352" fill="url(#paint2_radial)"/>
    <circle cx="744" cy="138" r="180" fill="url(#paint3_radial)"/>
  </g>
  <g opacity="0.18" stroke="#F8FAFC">
    <path d="M0 181.5H1600"/>
    <path d="M0 401.5H1600"/>
    <path d="M0 621.5H1600"/>
    <path d="M0 841.5H1600"/>
    <path d="M220 0V1100"/>
    <path d="M520 0V1100"/>
    <path d="M820 0V1100"/>
    <path d="M1120 0V1100"/>
    <path d="M1420 0V1100"/>
  </g>
  <g opacity="0.52">
    <path d="M969 171C1067 186.333 1179.67 267.4 1207 432C1234.33 596.6 1323.67 682.667 1365 704" stroke="#99F6E4" stroke-width="2"/>
    <path d="M220 730C293.833 682.5 445.1 623.2 539.5 780C657.5 976 811.5 888 906.5 714.5" stroke="#A7F3D0" stroke-width="2"/>
    <path d="M1116 125C986 229.167 813.2 488.8 1078 719" stroke="#ECFDF5" stroke-width="2"/>
  </g>
  <g opacity="0.18">
    <rect x="108" y="123" width="364" height="172" rx="26" fill="#F8FAFC"/>
    <rect x="1148" y="728" width="286" height="142" rx="24" fill="#0F766E"/>
    <rect x="950" y="458" width="188" height="188" rx="32" fill="#134E4A"/>
  </g>
  <defs>
    <linearGradient id="paint0_linear" x1="212" y1="128" x2="1408" y2="986" gradientUnits="userSpaceOnUse">
      <stop stop-color="#0F172A"/>
      <stop offset="0.48" stop-color="#134E4A"/>
      <stop offset="1" stop-color="#020617"/>
    </linearGradient>
    <radialGradient id="paint1_radial" cx="0" cy="0" r="1" gradientUnits="userSpaceOnUse" gradientTransform="translate(1318 236) rotate(90) scale(268)">
      <stop stop-color="#5EEAD4" stop-opacity="0.92"/>
      <stop offset="1" stop-color="#5EEAD4" stop-opacity="0"/>
    </radialGradient>
    <radialGradient id="paint2_radial" cx="0" cy="0" r="1" gradientUnits="userSpaceOnUse" gradientTransform="translate(298 880) rotate(90) scale(352)">
      <stop stop-color="#0F766E" stop-opacity="0.88"/>
      <stop offset="1" stop-color="#0F766E" stop-opacity="0"/>
    </radialGradient>
    <radialGradient id="paint3_radial" cx="0" cy="0" r="1" gradientUnits="userSpaceOnUse" gradientTransform="translate(744 138) rotate(90) scale(180)">
      <stop stop-color="#E2E8F0" stop-opacity="0.62"/>
      <stop offset="1" stop-color="#E2E8F0" stop-opacity="0"/>
    </radialGradient>
  </defs>
</svg>
